<svg width="50" height="53" viewBox="0 0 50 53" fill="none" xmlns="http://www.w3.org/2000/svg">
<path d="M10.1981 0.500366L14.9418 5.24405C15.2569 5.55942 15.4339 5.98703 15.4339 6.43287V34.1039C15.4338 34.4364 15.3352 34.7614 15.1504 35.0379C14.9656 35.3143 14.703 35.5298 14.3958 35.657C14.0886 35.7843 13.7505 35.8176 13.4244 35.7527C13.0983 35.6879 12.7987 35.5278 12.5635 35.2927L7.81983 30.549C7.50451 30.2337 7.32732 29.8061 7.32715 29.3602V1.68918C7.32711 1.35654 7.42567 1.03136 7.61047 0.754777C7.79528 0.478195 8.05796 0.262638 8.36529 0.135375C8.67263 0.00811252 9.01081 -0.0251378 9.33704 0.0398317C9.66328 0.104801 9.96297 0.265072 10.1981 0.500366Z" fill="#F57C1B"/>
<path d="M38.1757 0.491287L33.4222 5.24536C33.108 5.55973 32.9315 5.98602 32.9314 6.43053V34.1151C32.931 34.4469 33.0291 34.7714 33.2133 35.0473C33.3975 35.3233 33.6594 35.5384 33.966 35.6654C34.2725 35.7924 34.6098 35.8256 34.9352 35.7607C35.2606 35.6958 35.5594 35.5357 35.7938 35.3009L40.5473 30.5505C40.703 30.3947 40.8265 30.2099 40.9107 30.0064C40.9949 29.803 41.0382 29.5849 41.0381 29.3647V1.67645C41.0381 1.34484 40.9397 1.02068 40.7555 0.74497C40.5712 0.469264 40.3093 0.254395 40.0029 0.127534C39.6965 0.000674398 39.3594 -0.0324779 39.0342 0.0322693C38.7089 0.0970166 38.4102 0.256757 38.1757 0.491287Z" fill="#F57C1B"/>
<path d="M28.9513 13.5217L24.7971 17.6759C24.7259 17.7471 24.6412 17.8036 24.5481 17.8422C24.455 17.8808 24.3553 17.9006 24.2545 17.9006C24.1537 17.9006 24.0539 17.8808 23.9608 17.8422C23.8677 17.8036 23.7831 17.7471 23.7118 17.6759L19.4127 13.3767C19.3055 13.2692 19.1686 13.1959 19.0197 13.1662C18.8707 13.1364 18.7163 13.1516 18.5759 13.2097C18.4356 13.2678 18.3156 13.3663 18.2313 13.4926C18.1469 13.6189 18.1019 13.7675 18.1021 13.9194V19.6345C18.102 19.7353 18.1219 19.835 18.1605 19.9281C18.199 20.0213 18.2555 20.1059 18.3268 20.1771L23.8245 25.6748C23.8957 25.7461 23.9803 25.8026 24.0735 25.8412C24.1666 25.8797 24.2663 25.8996 24.3671 25.8996C24.4679 25.8996 24.5677 25.8797 24.6608 25.8412C24.754 25.8026 24.8386 25.7461 24.9098 25.6748L30.0366 20.548C30.1079 20.4768 30.1644 20.3922 30.2029 20.299C30.2415 20.2059 30.2614 20.1062 30.2613 20.0054V14.0643C30.2614 13.9125 30.2163 13.7642 30.132 13.638C30.0477 13.5118 29.9279 13.4134 29.7876 13.3553C29.6474 13.2972 29.4931 13.282 29.3442 13.3116C29.1954 13.3413 29.0586 13.4144 28.9513 13.5217Z" fill="#F57C1B"/>
<path d="M1.09747 45.6117H0V52.8592H1.09747V45.6117Z" fill="#F57C1B"/>
<path d="M5.909 52.8592L4.90472 49.5564C5.41204 49.2665 5.68123 48.7281 5.68123 47.962V47.4443C5.68123 46.2537 5.03931 45.6117 3.85902 45.6117H2.27493V52.8592H3.3724V49.7945H3.87972L4.74941 52.8592H5.909ZM3.8176 46.6264C4.34563 46.6264 4.58376 46.9059 4.58376 47.5168V47.8895C4.58376 48.5004 4.34563 48.7799 3.8176 48.7799H3.3724V46.6264H3.8176Z" fill="#F57C1B"/>
<path d="M10.0708 45.6117H8.97331L8.16574 51.1405H8.14503L7.32711 45.6117H6.20893L7.43064 52.8592H8.84907L10.0708 45.6117Z" fill="#F57C1B"/>
<path d="M11.9565 45.6117H10.859V52.8592H11.9565V45.6117Z" fill="#F57C1B"/>
<path d="M16.7059 45.6117H15.6706V49.9291H15.6498L14.3557 45.6117H13.1339V52.8592H14.1693V48.0552H14.19L15.6291 52.8592H16.7059V45.6117Z" fill="#F57C1B"/>
<path d="M24.5064 45.6117H23.0258L22.1768 49.5047H22.1561L21.2968 45.6117H19.8576V52.8592H20.893V47.8274H20.9137L21.8248 51.8238H22.4771L23.3882 47.8274H23.4089V52.8592H24.5064V45.6117Z" fill="#F57C1B"/>
<path d="M28.7769 45.6117H25.6916V52.8592H28.7769V51.8445H26.789V49.691H28.3938V48.6764H26.789V46.6264H28.7769V45.6117Z" fill="#F57C1B"/>
<path d="M33.2775 45.6117H32.2422V49.9291H32.2215L30.9273 45.6117H29.7056V52.8592H30.7409V48.0552H30.7616L32.2008 52.8592H33.2775V45.6117Z" fill="#F57C1B"/>
<path d="M37.543 45.6117H34.4577V52.8592H37.543V51.8445H35.5551V49.691H37.1599V48.6764H35.5551V46.6264H37.543V45.6117Z" fill="#F57C1B"/>
<path d="M39.7454 45.5082C38.6997 45.5082 38.1095 46.0984 38.1095 47.1337V47.289C38.1095 48.138 38.4512 48.7385 39.4555 49.5875C40.1906 50.2087 40.408 50.5711 40.408 51.0266V51.2647C40.408 51.7203 40.2009 51.9481 39.7868 51.9481C39.3726 51.9481 39.1656 51.7203 39.1656 51.2647V50.7471L38.1095 50.8506V51.3372C38.1095 52.3726 38.7204 52.9627 39.8075 52.9627C40.8946 52.9627 41.5055 52.3726 41.5055 51.3372V50.9748C41.5055 50.1052 41.1327 49.5047 40.1284 48.6557C39.3934 48.0345 39.207 47.6721 39.207 47.2476V47.1544C39.207 46.7403 39.4037 46.5228 39.7661 46.5228C40.1284 46.5228 40.3252 46.7403 40.3252 47.1544V47.4236L41.3812 47.3201V47.1337C41.3812 46.0984 40.7911 45.5082 39.7454 45.5082Z" fill="#F57C1B"/>
<path d="M45.2575 45.6117H42.1722V52.8592H45.2575V51.8445H43.2697V49.691H44.8745V48.6764H43.2697V46.6264H45.2575V45.6117Z" fill="#F57C1B"/>
<path d="M47.4599 45.5082C46.4142 45.5082 45.8241 46.0984 45.8241 47.1337V47.289C45.8241 48.138 46.1657 48.7385 47.17 49.5875C47.9051 50.2087 48.1225 50.5711 48.1225 51.0266V51.2647C48.1225 51.7203 47.9155 51.9481 47.5013 51.9481C47.0872 51.9481 46.8801 51.7203 46.8801 51.2647V50.7471L45.8241 50.8506V51.3372C45.8241 52.3726 46.4349 52.9627 47.522 52.9627C48.6092 52.9627 49.22 52.3726 49.22 51.3372V50.9748C49.22 50.1052 48.8473 49.5047 47.843 48.6557C47.1079 48.0345 46.9215 47.6721 46.9215 47.2476V47.1544C46.9215 46.7403 47.1183 46.5228 47.4806 46.5228C47.843 46.5228 48.0397 46.7403 48.0397 47.1544V47.4236L49.0958 47.3201V47.1337C49.0958 46.0984 48.5056 45.5082 47.4599 45.5082Z" fill="#F57C1B"/>
</svg>