<svg width="45" height="50" viewBox="0 0 45 50" fill="none" xmlns="http://www.w3.org/2000/svg">
      <path d="M42.2803 10.9817L24.1551 0.477463C23.0201 -0.159155 21.5303 -0.159155 20.3598 0.477463L2.02179 10.9817C0.851282 11.6536 0 12.9269 0 14.3062V35.2792C0 36.6586 0.851282 37.9318 2.02179 38.6038L6.88119 41.3625C9.18675 42.4942 10.0026 42.4942 11.0667 42.4942C14.5073 42.4942 16.4581 40.4429 16.4581 36.8354V16.0746C16.4581 15.7917 16.3162 15.3319 16.0325 15.3319H13.7269C13.4432 15.3319 12.7692 15.7563 12.7692 16.0746V36.8001C12.7692 38.3916 11.315 39.9831 8.61923 38.6392L3.61795 35.7744C3.4406 35.6683 3.33419 35.4915 3.33419 35.2792V14.3062C3.33419 14.094 3.54701 13.9172 3.72436 13.8111L21.9914 3.30688C22.1688 3.20077 22.4171 3.20077 22.5944 3.30688L40.6132 13.7757C40.7906 13.8818 40.7196 14.0586 40.7196 14.2709V35.2439C40.7196 35.4561 40.7906 35.6329 40.6132 35.739L22.4526 46.2432C22.3107 46.3493 22.0979 46.3493 21.9205 46.2432L17.3449 43.4845C17.203 43.4138 17.0256 43.3784 16.9192 43.4492C15.6068 44.1919 15.394 44.2626 14.188 44.687C13.9043 44.7931 13.4432 44.97 14.3654 45.4651L20.4662 49.0726C21.0338 49.4263 21.7077 49.5678 22.3816 49.5678C23.0555 49.5678 23.7295 49.3909 24.297 49.0726L42.3513 38.5684C43.5218 37.8965 44.0893 36.6232 44.0893 35.2439V14.3062C44.0184 12.9269 43.4863 11.6536 42.2803 10.9817ZM27.9504 31.9547C23.1265 31.9547 22.0624 30.6107 21.7077 28.2411C21.6722 27.9935 21.4594 27.6752 21.1756 27.6752H18.8346C18.5508 27.6752 18.3026 28.0289 18.3026 28.3118C18.3026 31.3888 19.9697 35.1024 27.9504 35.1024C33.732 35.1024 37.0308 32.8742 37.0308 28.9131C37.0308 24.9873 34.3705 23.9616 28.7662 23.2189C23.091 22.4761 22.5235 22.0871 22.5235 20.7785C22.5235 19.6821 23.0201 18.232 27.2055 18.232C30.9654 18.232 32.3487 19.0455 32.9162 21.5566C32.9517 21.8042 33.1645 21.9456 33.4128 21.9456H35.7893C35.9312 21.9456 36.0731 21.8749 36.1795 21.7688C36.2859 21.6627 36.3214 21.5212 36.3214 21.3798C35.9667 17.0295 33.0581 15.0136 27.2055 15.0136C21.9914 15.0136 18.9056 17.2064 18.9056 20.8846C18.9056 24.8812 21.9914 25.9775 26.9927 26.4727C32.9517 27.0386 33.4128 27.9228 33.4128 29.0899C33.4128 31.0705 31.7812 31.9547 27.9504 31.9547Z" fill="url(#paint0_linear)"/>
      <defs>
        <linearGradient id="paint0_linear" x1="22.0173" y1="3.06747" x2="22.0173" y2="46.975" gradientUnits="userSpaceOnUse">
          <stop stop-color="#F57C1B"/>
          <stop offset="1" stop-color="#002A66"/>
        </linearGradient>
      </defs>
    </svg>