<svg width="56" height="61" viewBox="0 0 56 61" fill="none" xmlns="http://www.w3.org/2000/svg">
      <path d="M0 42.2712C0 39.5809 1.45249 36.3606 4.27447 32.855C8.13394 28.1265 14.0684 23.3164 21.0818 19.3624C28.0953 15.4084 35.3162 12.7181 41.4167 11.8213C47.8492 10.8837 52.3726 12.0659 54.1986 15.1231C55.9831 18.1803 54.7796 22.6235 50.7126 27.6373C46.8947 32.4066 40.9187 37.2166 33.9053 41.1706C26.8918 45.1246 19.6709 47.815 13.5704 48.7118C7.13795 49.6493 2.61448 48.4672 0.788494 45.41C0.248998 44.4724 0 43.4534 0 42.2712ZM52.9121 18.2618C52.9121 17.4873 52.7461 16.7536 52.3726 16.1422C51.0446 13.9002 47.1437 13.0442 41.7072 13.8187C35.8557 14.6747 28.8838 17.2835 22.1193 21.1152C15.3549 24.947 9.58643 29.5939 5.89296 34.1594C2.48998 38.3988 1.28649 42.1082 2.61448 44.3909C3.94247 46.6329 7.84344 47.4889 13.2799 46.7144C19.1314 45.8584 26.1033 43.2903 32.8678 39.4178C39.6322 35.5861 45.4007 30.9391 49.0941 26.3737C51.5841 23.2757 52.9121 20.4223 52.9121 18.2618Z" fill="url(#paint0_linear)"/>
      <path d="M0 18.2617C0 17.1204 0.248998 16.0605 0.788494 15.1637C2.57298 12.1065 7.13795 10.9244 13.5704 11.8619C19.6709 12.7587 26.8918 15.4083 33.9052 19.4031C40.9187 23.3163 46.8946 28.1264 50.7126 32.8956C54.7381 37.9095 55.9831 42.3526 54.1986 45.4099C52.4141 48.4671 47.8491 49.6492 41.4167 48.7117C35.3162 47.8149 28.0953 45.1653 21.0818 41.1705C14.0684 37.1757 8.13394 32.4065 4.27447 27.6372C1.45249 24.1724 0 20.9113 0 18.2617ZM32.8678 21.1151C26.1033 17.2834 19.1314 14.6746 13.2799 13.8593C7.84344 13.0441 3.94247 13.9001 2.61448 16.142C1.28649 18.4248 2.48998 22.1342 5.89296 26.3736C9.58643 30.939 15.3134 35.5452 22.1193 39.4177C28.8838 43.2494 35.8557 45.8583 41.7072 46.7143C47.1437 47.4888 51.0446 46.6735 52.3726 44.3908C53.7006 42.1488 52.4971 38.3986 49.0941 34.1593C45.4007 29.5938 39.6737 24.9468 32.8678 21.1151Z" fill="url(#paint1_linear)"/>
      <path d="M14.6494 30.2869C14.6494 13.2887 20.2934 0 27.5143 0C34.7353 0 40.3377 13.2887 40.3377 30.2869C40.3377 47.2851 34.6938 60.5738 27.5143 60.5738C20.3349 60.5738 14.6494 47.2443 14.6494 30.2869ZM38.2628 30.2869C38.2628 13.3703 32.7018 2.03815 27.5143 2.03815C22.3269 2.03815 16.7244 13.3703 16.7244 30.2869C16.7244 47.2035 22.2854 58.5356 27.4728 58.5356C32.6603 58.5356 38.2628 47.1628 38.2628 30.2869Z" fill="url(#paint2_linear)"/>
      <path d="M27.5143 35.6676C30.5397 35.6676 32.9923 33.2585 32.9923 30.2868C32.9923 27.3152 30.5397 24.9061 27.5143 24.9061C24.4889 24.9061 22.0364 27.3152 22.0364 30.2868C22.0364 33.2585 24.4889 35.6676 27.5143 35.6676Z" fill="url(#paint3_linear)"/>
      <defs>
        <linearGradient id="paint0_linear" x1="27.4975" y1="11.5146" x2="27.4975" y2="49.0261" gradientUnits="userSpaceOnUse">
          <stop stop-color="#F57C1B"/>
          <stop offset="1" stop-color="#002A66"/>
        </linearGradient>
        <linearGradient id="paint1_linear" x1="27.4976" y1="11.5145" x2="27.4976" y2="49.026" gradientUnits="userSpaceOnUse">
          <stop stop-color="#F57C1B"/>
          <stop offset="1" stop-color="#002A66"/>
        </linearGradient>
        <linearGradient id="paint2_linear" x1="27.4975" y1="0" x2="27.4975" y2="60.5406" gradientUnits="userSpaceOnUse">
          <stop stop-color="#F57C1B"/>
          <stop offset="1" stop-color="#002A66"/>
        </linearGradient>
        <linearGradient id="paint3_linear" x1="27.4975" y1="24.8991" x2="27.4975" y2="35.6414" gradientUnits="userSpaceOnUse">
          <stop stop-color="#F57C1B"/>
          <stop offset="1" stop-color="#002A66"/>
        </linearGradient>
      </defs>
    </svg>