<svg width="66" height="48" viewBox="0 0 66 48" fill="none" xmlns="http://www.w3.org/2000/svg">
    <path d="M56.2092 27.4254C53.9625 27.4254 51.9655 27.9549 50.3429 28.7696C49.7188 27.5883 49.1363 26.57 49.0115 25.796C48.8867 24.8998 48.7618 24.3703 48.8867 23.3112C49.0115 22.2521 49.6772 20.7449 49.6772 20.6227C49.6772 20.5005 49.5524 19.9709 48.221 19.9709C46.9312 19.9709 45.8079 20.2153 45.683 20.5412C45.5582 20.8671 45.3086 21.641 45.1422 22.4557C44.9342 23.637 42.521 27.7513 41.1897 29.9102C40.732 29.0548 40.3576 28.3216 40.2743 27.7513C40.1495 26.8551 40.0247 26.3256 40.1495 25.2664C40.2743 24.2073 40.94 22.7001 40.94 22.5779C40.94 22.4557 40.8152 21.9262 39.4838 21.9262C38.1941 21.9262 37.0707 22.1706 36.9459 22.4965C36.8211 22.8224 36.6963 23.637 36.405 24.411C36.1554 25.185 32.9934 32.0692 32.1613 33.8615C31.7452 34.7577 31.3708 35.4909 31.1212 36.0204C30.8715 36.5093 31.1212 36.0612 31.0795 36.1019C30.8715 36.5093 30.7051 36.7537 30.7051 36.7537C30.5387 37.0796 30.3306 37.3647 30.2474 37.3647C30.1642 37.3647 30.0394 36.55 30.289 35.4094C30.7467 33.0061 31.9117 29.2992 31.8701 29.177C31.8701 29.0955 32.0781 28.4438 31.1212 28.1179C30.2058 27.792 29.873 28.3216 29.7898 28.3216C29.7066 28.3216 29.665 28.5252 29.665 28.5252C29.665 28.5252 30.7051 24.1666 27.7095 24.1666C25.8373 24.1666 23.2577 26.1626 21.968 27.9957C21.1775 28.4438 19.43 29.3399 17.5994 30.3176C16.8921 30.6842 16.1848 31.0915 15.5191 31.4581L15.3943 31.2952C11.7746 27.5069 5.07617 24.8591 5.3674 19.7672C5.45061 17.9342 6.1163 13.046 18.2235 7.18017C28.1256 2.33272 36.0722 3.67697 37.4452 6.60988C39.4006 10.8056 33.2014 18.6267 22.9249 19.7672C19.014 20.2153 16.9337 18.7081 16.4344 18.1378C15.8936 17.5676 15.8104 17.5268 15.6023 17.649C15.2695 17.812 15.4775 18.3415 15.6023 18.6674C15.8936 19.4414 17.1833 20.8263 19.3052 21.5188C21.1775 22.1299 25.7957 22.4557 31.3708 20.3375C37.6116 17.9749 42.4794 11.4166 41.0648 5.91739C39.5671 0.377447 30.081 -1.45562 21.1359 1.64023C15.8104 3.51403 10.0272 6.40621 5.90827 10.1945C0.998835 14.7161 0.208332 18.6267 0.541176 20.2561C1.66452 26.1219 9.86079 29.9102 13.1892 32.7209C13.0228 32.8024 12.8564 32.8839 12.7316 32.9653C11.0673 33.7393 4.82653 36.9573 3.24553 40.3383C1.45649 44.1674 3.53677 46.9374 4.90974 47.304C9.1535 48.4446 13.4389 46.4078 15.8104 42.9861C18.1403 39.5644 17.849 35.165 16.7673 33.1283L16.7257 33.0468L18.0154 32.3136C18.8476 31.8248 19.6797 31.3767 20.387 31.0101C19.9709 32.0692 19.6797 33.3727 19.5548 35.2057C19.3884 37.3647 20.3037 40.2161 21.5103 41.316C22.0512 41.8048 22.6753 41.8048 23.0497 41.8048C24.4227 41.8048 25.0884 40.6642 25.7541 39.32C26.6278 37.6906 27.3767 35.776 27.3767 35.776C27.3767 35.776 26.4197 40.9494 29.0409 40.9494C29.9978 40.9494 30.9547 39.7681 31.3708 39.1163C31.3708 39.1163 31.4124 39.0756 31.454 38.9941C31.4956 38.9126 31.5372 38.8312 31.6204 38.7497V38.7089C31.9949 38.0572 32.827 36.5907 34.1167 34.1466C35.7394 31.0101 37.3204 27.0588 37.3204 27.0588C37.3204 27.0588 37.4868 28.0364 37.9444 29.6251C38.2357 30.562 38.8182 31.5803 39.3174 32.5987C38.943 33.1283 38.6933 33.4134 38.6933 33.4134C38.4021 33.8208 38.0277 34.2281 37.6948 34.6355C36.405 36.1427 34.8656 37.8535 34.6576 38.3423C34.408 38.9126 34.4496 39.3607 34.9489 39.6866C35.2817 39.931 35.9058 39.9717 36.5299 39.931C37.6948 39.8495 38.4853 39.5644 38.9014 39.4014C39.5254 39.1978 40.2743 38.8312 40.94 38.3423C42.1882 37.4462 42.9787 36.1427 42.8955 34.3911C42.8539 33.4542 42.521 32.4765 42.1466 31.6211C42.2714 31.4581 42.3546 31.2952 42.4794 31.1323C44.4765 28.2808 46.0159 25.1442 46.0159 25.1442C46.0159 25.1442 46.1823 26.1219 46.64 27.7105C46.8896 28.5252 47.3473 29.3807 47.8049 30.2768C45.9327 31.784 44.7677 33.4949 44.3517 34.6355C43.6028 36.7537 44.1852 37.6906 45.267 37.935C45.7663 38.0165 46.4735 37.8128 47.0144 37.5684C47.6801 37.3647 48.4706 36.9981 49.2195 36.4685C50.4677 35.5724 51.7158 34.2688 51.6326 32.558C51.591 31.784 51.383 30.9693 51.0918 30.2361C52.6728 29.5843 54.753 29.2177 57.3742 29.5436C62.9909 30.1954 64.1143 33.6171 63.9062 35.0835C63.6982 36.5093 62.5332 37.324 62.1172 37.5684C61.7427 37.8128 61.6179 37.8942 61.6179 38.0572C61.6595 38.3016 61.8259 38.3016 62.2004 38.2609C62.6581 38.1794 65.1544 37.0796 65.2792 34.4318C65.3624 31.0915 62.034 27.3847 56.2092 27.4254ZM12.7732 41.7233C10.9009 43.7193 8.27978 44.4526 7.19804 43.8415C5.99149 43.149 6.44914 40.2161 8.73744 38.0979C10.1104 36.7944 11.9411 35.6131 13.106 34.8799C13.3556 34.7169 13.7717 34.4725 14.271 34.1874C14.3542 34.1466 14.3958 34.1059 14.3958 34.1059C14.479 34.0652 14.6038 33.9837 14.687 33.943C15.5607 36.9981 14.7702 39.6458 12.7732 41.7233ZM26.3781 32.6802C25.7125 34.2281 24.3811 38.2201 23.549 37.9757C22.8417 37.772 22.4256 34.7984 23.4242 31.8248C23.9234 30.3176 25.0052 28.5252 25.6292 27.8327C26.6694 26.7329 27.7511 26.3663 28.0424 26.8144C28.3752 27.4254 26.7942 31.7433 26.3781 32.6802ZM37.6116 37.935C37.3204 38.0572 37.0707 38.1794 36.9459 38.0979C36.8627 38.0572 37.0707 37.8535 37.0707 37.8535C37.0707 37.8535 38.4853 36.3871 39.0262 35.6946C39.359 35.2872 39.7335 34.8391 40.1079 34.3096V34.4725C40.1495 36.2649 38.4021 37.4462 37.6116 37.935ZM46.2655 36.0204C46.0575 35.8575 46.0991 35.4094 46.7648 33.9837C47.0144 33.4134 47.6385 32.4765 48.6786 31.5396C48.8035 31.9062 48.8867 32.2728 48.8867 32.5987C48.8451 34.8391 47.2224 35.6538 46.2655 36.0204Z" fill="url(#paint0_linear)"/>
    <defs>
    <linearGradient id="paint0_linear" x1="32.8296" y1="0.9912" x2="32.8296" y2="41.3951" gradientUnits="userSpaceOnUse">
    <stop stop-color="#F57C1B"/>
    <stop offset="1" stop-color="#002A66"/>
    </linearGradient>
    </defs>
</svg>