<svg width="47" height="46" viewBox="0 0 47 46" fill="none" xmlns="http://www.w3.org/2000/svg">
<path d="M42.9293 11.4829C40.8687 7.95905 38.0808 5.14402 34.5657 3.09856C31.0303 1.03285 27.1717 0 23.0101 0C18.8283 0 14.9899 1.03285 11.4545 3.09856C7.9394 5.16427 5.13132 7.95905 3.09091 11.4829C1.0303 15.027 0 18.8749 0 23.0671C0 28.0896 1.45455 32.6058 4.38384 36.6157C7.31313 40.6256 11.0909 43.4001 15.7172 44.9393C16.2626 45.0405 16.6465 44.9595 16.9091 44.7367C17.1717 44.4937 17.2929 44.1899 17.2929 43.8456C17.2929 43.7849 17.2929 43.2381 17.2727 42.2255C17.2525 41.2129 17.2525 40.3218 17.2525 39.5522L16.5657 39.6737C16.1212 39.7547 15.5758 39.7952 14.9091 39.775C14.2424 39.775 13.5556 39.694 12.8283 39.5725C12.101 39.451 11.4343 39.1472 10.8283 38.6814C10.202 38.2156 9.77778 37.5878 9.51515 36.8384L9.21212 36.1499C9.0101 35.6841 8.70707 35.1778 8.26263 34.6107C7.83839 34.0437 7.39394 33.6791 6.9697 33.4766L6.76768 33.3348C6.62627 33.2336 6.50505 33.1121 6.38384 32.9703C6.26263 32.8285 6.18182 32.6868 6.12121 32.545C6.06061 32.4032 6.10101 32.2817 6.26263 32.2007C6.42424 32.1197 6.70707 32.059 7.13132 32.059L7.73738 32.14C8.14142 32.221 8.62627 32.464 9.21212 32.869C9.79798 33.2741 10.2828 33.7804 10.6667 34.4285C11.1313 35.2588 11.6768 35.8663 12.3232 36.3119C12.9697 36.7372 13.6162 36.96 14.2828 36.96C14.9495 36.96 15.5152 36.9195 16 36.8182C16.4849 36.7169 16.9293 36.5752 17.3535 36.3727C17.5354 35.036 18.0202 34.0032 18.8283 33.2741C17.697 33.1526 16.6667 32.9703 15.7576 32.7273C14.8485 32.4843 13.9192 32.0995 12.9495 31.5527C11.9798 31.0059 11.1717 30.3375 10.5455 29.5477C9.89899 28.7376 9.37374 27.7048 8.9697 26.3884C8.56566 25.0923 8.36364 23.5936 8.36364 21.8924C8.36364 19.4622 9.15152 17.4167 10.7273 15.7156C9.9798 13.8929 10.0606 11.8474 10.9293 9.59946C11.5152 9.41719 12.3636 9.55896 13.5152 10.0045C14.6465 10.45 15.495 10.8348 16.0202 11.1589C16.5455 11.4829 16.9697 11.7462 17.2929 11.969C19.1515 11.4424 21.0707 11.1791 23.0505 11.1791C25.0303 11.1791 26.9495 11.4424 28.8081 11.969L29.9394 11.2399C30.7273 10.7538 31.6364 10.3285 32.6869 9.9235C33.7374 9.51845 34.5455 9.41719 35.1111 9.59946C36 11.8677 36.0808 13.9131 35.3535 15.7156C36.9293 17.4167 37.7172 19.4825 37.7172 21.8924C37.7172 23.5936 37.5152 25.0923 37.1111 26.4086C36.7071 27.725 36.1818 28.7781 35.5152 29.568C34.8687 30.3578 34.0606 31.0261 33.0909 31.5729C32.1212 32.1197 31.1919 32.5045 30.2828 32.7475C29.3737 32.9906 28.3434 33.1728 27.2121 33.2943C28.2424 34.1854 28.7677 35.6233 28.7677 37.5675V43.9064C28.7677 44.2709 28.8889 44.5747 29.1515 44.7975C29.3939 45.0405 29.798 45.1013 30.3434 45C34.9697 43.4609 38.7475 40.6863 41.6768 36.6764C44.6061 32.6665 46.0606 28.1503 46.0606 23.1278C46 18.8749 44.9697 15.027 42.9293 11.4829Z" fill="url(#paint0_linear)"/>
<defs>
<linearGradient id="paint0_linear" x1="23.0044" y1="0" x2="23.0044" y2="44.9945" gradientUnits="userSpaceOnUse">
<stop stop-color="#F57C1B"/>
<stop offset="1" stop-color="#002A66"/>
</linearGradient>
</defs>
</svg>
