<svg width="227" height="237" viewBox="0 0 227 237" fill="none" xmlns="http://www.w3.org/2000/svg">
<path opacity="0.32" d="M51.2697 34.7109C52.3218 35.7443 53.1562 36.9711 53.7254 38.3214C54.2947 39.6716 54.5875 41.1188 54.5873 42.5802V225.631C54.5873 235.54 42.4004 240.5 35.2588 233.488L3.31755 202.113C2.26553 201.08 1.43107 199.853 0.861842 198.503C0.29261 197.153 -0.000248185 195.706 1.57814e-07 194.244V11.1927C1.57814e-07 1.2837 12.1869 -3.67613 19.3285 3.33597L51.2697 34.7109Z" fill="url(#paint0_linear)"/>
<path opacity="0.32" d="M154.445 93.0554V132.364C154.445 133.708 153.903 134.996 152.938 135.949L118.408 169.865C117.436 170.814 116.122 171.346 114.752 171.346C113.382 171.346 112.068 170.814 111.096 169.865L74.0783 133.491C73.5962 133.022 73.2136 132.464 72.9526 131.849C72.6916 131.234 72.5573 130.574 72.5576 129.907V92.0944C72.5582 91.0896 72.8622 90.1075 73.4312 89.2725C74.0001 88.4374 74.8085 87.7869 75.7539 87.4032C76.6994 87.0196 77.7394 86.92 78.7425 87.1171C79.7456 87.3142 80.6667 87.7991 81.3891 88.5105L110.343 116.95C111.314 117.898 112.629 118.431 113.999 118.431C115.369 118.431 116.683 117.898 117.655 116.95L145.63 89.4715C146.352 88.7617 147.271 88.2781 148.273 88.0819C149.275 87.8858 150.313 87.9859 151.257 88.3696C152.201 88.7532 153.007 89.4032 153.575 90.2373C154.142 91.0714 154.445 92.0521 154.445 93.0554Z" fill="url(#paint1_linear)"/>
<path opacity="0.32" d="M227 11.1141V194.256C227.001 195.713 226.709 197.155 226.142 198.501C225.575 199.847 224.743 201.069 223.695 202.099L191.687 233.538C184.575 240.524 172.411 235.577 172.411 225.695V42.5662C172.411 41.1096 172.702 39.6672 173.27 38.3214C173.837 36.9756 174.668 35.7528 175.717 34.7228L207.737 3.27074C214.85 -3.71609 227 1.23175 227 11.1141Z" fill="url(#paint2_linear)"/>
<defs>
<linearGradient id="paint0_linear" x1="27.2936" y1="9.04701" x2="27.2936" y2="217.598" gradientUnits="userSpaceOnUse">
<stop stop-color="#005EA5"/>
<stop offset="0.096" stop-color="#005094"/>
<stop offset="0.259" stop-color="#003F80"/>
<stop offset="0.442" stop-color="#003371"/>
<stop offset="0.659" stop-color="#002C68"/>
<stop offset="1" stop-color="#002A66"/>
</linearGradient>
<linearGradient id="paint1_linear" x1="113.501" y1="90.2229" x2="113.501" y2="164.516" gradientUnits="userSpaceOnUse">
<stop stop-color="#005EA5"/>
<stop offset="0.096" stop-color="#005094"/>
<stop offset="0.259" stop-color="#003F80"/>
<stop offset="0.442" stop-color="#003371"/>
<stop offset="0.659" stop-color="#002C68"/>
<stop offset="1" stop-color="#002A66"/>
</linearGradient>
<linearGradient id="paint2_linear" x1="199.706" y1="8.99873" x2="199.706" y2="217.627" gradientUnits="userSpaceOnUse">
<stop stop-color="#005EA5"/>
<stop offset="0.096" stop-color="#005094"/>
<stop offset="0.259" stop-color="#003F80"/>
<stop offset="0.442" stop-color="#003371"/>
<stop offset="0.659" stop-color="#002C68"/>
<stop offset="1" stop-color="#002A66"/>
</linearGradient>
</defs>
</svg>
