<svg width="45" height="45" viewBox="0 0 45 45" fill="none" xmlns="http://www.w3.org/2000/svg">
<path d="M28.0231 22.6039C28.0231 25.6732 25.5453 28.151 22.476 28.151C19.4068 28.151 16.929 25.6732 16.929 22.6039C16.929 19.5347 19.4228 17.0569 22.476 17.0569C25.5293 17.0569 28.0231 19.5347 28.0231 22.6039Z" fill="url(#paint0_linear)"/>
<path d="M29.6057 9.14387H15.3304C11.8455 9.14387 9.01599 11.9734 9.01599 15.4742V29.7496C9.01599 33.2345 11.8455 36.0639 15.3304 36.0639H29.6057C33.0906 36.0639 35.9201 33.2345 35.9201 29.7496V15.4742C35.9361 11.9734 33.1066 9.14387 29.6057 9.14387ZM22.476 31.1723C17.7442 31.1723 13.9076 27.3357 13.9076 22.6039C13.9076 17.8721 17.7442 14.0355 22.476 14.0355C27.2078 14.0355 31.0444 17.8721 31.0444 22.6039C31.0444 27.3357 27.1918 31.1723 22.476 31.1723ZM31.3162 15.714C30.2131 15.714 29.3179 14.8188 29.3179 13.7158C29.3179 12.6128 30.2131 11.7176 31.3162 11.7176C32.4192 11.7176 33.3144 12.6128 33.3144 13.7158C33.3144 14.8188 32.4192 15.714 31.3162 15.714ZM29.6057 9.14387H15.3304C11.8455 9.14387 9.01599 11.9734 9.01599 15.4742V29.7496C9.01599 33.2345 11.8455 36.0639 15.3304 36.0639H29.6057C33.0906 36.0639 35.9201 33.2345 35.9201 29.7496V15.4742C35.9361 11.9734 33.1066 9.14387 29.6057 9.14387ZM22.476 31.1723C17.7442 31.1723 13.9076 27.3357 13.9076 22.6039C13.9076 17.8721 17.7442 14.0355 22.476 14.0355C27.2078 14.0355 31.0444 17.8721 31.0444 22.6039C31.0444 27.3357 27.1918 31.1723 22.476 31.1723ZM31.3162 15.714C30.2131 15.714 29.3179 14.8188 29.3179 13.7158C29.3179 12.6128 30.2131 11.7176 31.3162 11.7176C32.4192 11.7176 33.3144 12.6128 33.3144 13.7158C33.3144 14.8188 32.4192 15.714 31.3162 15.714ZM34.4494 0H10.5506C4.71581 0 0 4.71581 0 10.5506V34.4494C0 40.2682 4.71581 45 10.5506 45H34.4494C40.2682 45 45 40.2842 45 34.4494V10.5506C45 4.71581 40.2682 0 34.4494 0ZM38.9734 29.4938C38.9734 34.7531 34.7052 39.0213 29.4458 39.0213H15.4902C10.2309 39.0213 5.9627 34.7531 5.9627 29.4938V15.5542C5.9627 10.2948 10.2309 6.02664 15.4902 6.02664H29.4458C34.7052 6.02664 38.9734 10.2948 38.9734 15.5542V29.4938ZM29.6057 9.14387H15.3304C11.8455 9.14387 9.01599 11.9734 9.01599 15.4742V29.7496C9.01599 33.2345 11.8455 36.0639 15.3304 36.0639H29.6057C33.0906 36.0639 35.9201 33.2345 35.9201 29.7496V15.4742C35.9361 11.9734 33.1066 9.14387 29.6057 9.14387ZM22.476 31.1723C17.7442 31.1723 13.9076 27.3357 13.9076 22.6039C13.9076 17.8721 17.7442 14.0355 22.476 14.0355C27.2078 14.0355 31.0444 17.8721 31.0444 22.6039C31.0444 27.3357 27.1918 31.1723 22.476 31.1723ZM31.3162 15.714C30.2131 15.714 29.3179 14.8188 29.3179 13.7158C29.3179 12.6128 30.2131 11.7176 31.3162 11.7176C32.4192 11.7176 33.3144 12.6128 33.3144 13.7158C33.3144 14.8188 32.4192 15.714 31.3162 15.714Z" fill="url(#paint1_linear)"/>
<defs>
<linearGradient id="paint0_linear" x1="22.4697" y1="17.4745" x2="22.4697" y2="43.8239" gradientUnits="userSpaceOnUse">
<stop stop-color="#F57C1B"/>
<stop offset="1" stop-color="#002A66"/>
</linearGradient>
<linearGradient id="paint1_linear" x1="22.4976" y1="11.4674" x2="22.4976" y2="44.9255" gradientUnits="userSpaceOnUse">
<stop stop-color="#F57C1B"/>
<stop offset="0.1414" stop-color="#D97224"/>
<stop offset="0.4482" stop-color="#905A3A"/>
<stop offset="0.8937" stop-color="#1D345D"/>
<stop offset="1" stop-color="#002A66"/>
</linearGradient>
</defs>
</svg>
