<svg width="57" height="62" viewBox="0 0 57 62" fill="none" xmlns="http://www.w3.org/2000/svg">
  <path d="M27.2266 10.381L10.372 19.9514L1.33569 14.5487L26.9908 6.10352e-05L27.2266 10.381Z" fill="#F57C1B"/>
  <path d="M2.27881 47.3894L11.1579 41.9095L26.9517 50.7468V61.5522L2.27881 47.3894Z" fill="url(#paint0_linear)"/>
  <path d="M53.9036 47.3894L45.0245 41.9095L29.2307 50.7468V61.5522L53.9036 47.3894Z" fill="url(#paint1_linear)"/>
  <path d="M29.0732 10.381L45.9278 19.9514L54.9641 14.5487L29.309 6.10352e-05L29.0732 10.381Z" fill="#F57C1B"/>
  <path d="M47.0278 21.6108V40.7132L56.2998 45.6913V16.6326L47.0278 21.6108Z" fill="url(#paint2_linear)"/>
  <path d="M9.272 21.6109V40.7133L0 45.6915V16.6327L9.272 21.6109Z" fill="url(#paint3_linear)"/>
  <path d="M28.1303 29.8692L12.8865 21.1092L28.1303 12.5806L43.374 21.1092L28.1303 29.8692Z" fill="#002A66"/>
  <path d="M29.2307 31.8374L44.6709 23.0773V39.5556L29.2307 47.8526V31.8374Z" fill="#002A66"/>
  <path d="M26.952 31.8374L11.551 23.0773V39.5556L26.952 47.8526V31.8374Z" fill="#002A66"/>
  <defs>
  <linearGradient id="paint0_linear" x1="21.6974" y1="42.9993" x2="14.9892" y2="54.2723" gradientUnits="userSpaceOnUse">
  <stop offset="0.0578925" stop-color="#F57C1B"/>
  <stop offset="0.2136" stop-color="#B5662F"/>
  <stop offset="0.366" stop-color="#7E5440"/>
  <stop offset="0.5126" stop-color="#51454D"/>
  <stop offset="0.6525" stop-color="#2E3958"/>
  <stop offset="0.7838" stop-color="#143160"/>
  <stop offset="0.9032" stop-color="#052C64"/>
  <stop offset="1" stop-color="#002A66"/>
  </linearGradient>
  <linearGradient id="paint1_linear" x1="34.4837" y1="42.9993" x2="41.192" y2="54.2723" gradientUnits="userSpaceOnUse">
  <stop offset="0.0578925" stop-color="#F57C1B"/>
  <stop offset="0.2136" stop-color="#B5662F"/>
  <stop offset="0.366" stop-color="#7E5440"/>
  <stop offset="0.5126" stop-color="#51454D"/>
  <stop offset="0.6525" stop-color="#2E3958"/>
  <stop offset="0.7838" stop-color="#143160"/>
  <stop offset="0.9032" stop-color="#052C64"/>
  <stop offset="1" stop-color="#002A66"/>
  </linearGradient>
  <linearGradient id="paint2_linear" x1="51.6458" y1="19.0839" x2="51.6458" y2="42.7031" gradientUnits="userSpaceOnUse">
  <stop stop-color="#F57C1B"/>
  <stop offset="0.1401" stop-color="#D97324"/>
  <stop offset="0.4434" stop-color="#915B3A"/>
  <stop offset="0.8835" stop-color="#1F345C"/>
  <stop offset="1" stop-color="#002A66"/>
  </linearGradient>
  <linearGradient id="paint3_linear" x1="4.63584" y1="19.084" x2="4.63584" y2="42.7032" gradientUnits="userSpaceOnUse">
  <stop stop-color="#F57C1B"/>
  <stop offset="0.1401" stop-color="#D97324"/>
  <stop offset="0.4434" stop-color="#915B3A"/>
  <stop offset="0.8835" stop-color="#1F345C"/>
  <stop offset="1" stop-color="#002A66"/>
  </linearGradient>
  </defs>
  </svg>