<svg width="43" height="43" viewBox="0 0 43 43" fill="none" xmlns="http://www.w3.org/2000/svg">
<path d="M38.6905 0H4.30947C1.94163 0 0 1.94163 0 4.30947V38.6905C0 41.0584 1.94163 43 4.30947 43H38.6905C41.0584 43 43 41.0584 43 38.6905V4.30947C42.9763 1.94163 41.0584 0 38.6905 0ZM12.9047 36.5358H6.44053V17.1905H12.8811V36.5358H12.9047ZM9.66079 13.5441C7.50606 13.5441 5.80121 11.8155 5.80121 9.68447C5.80121 7.55341 7.52974 5.82489 9.66079 5.82489C11.7918 5.82489 13.5204 7.55341 13.5204 9.68447C13.5204 11.8155 11.8155 13.5441 9.66079 13.5441ZM36.5358 36.5358H30.0953V25.1465C30.0953 23.4179 28.5798 21.9262 26.875 21.9262C25.1465 21.9262 23.6547 23.4416 23.6547 25.1465V36.5358H17.1905V17.1905H23.6311V19.7715C24.6966 18.043 27.0644 16.7643 29.0061 16.7643C33.0787 16.7643 36.5358 20.1977 36.5358 24.2941V36.5358Z" fill="url(#paint0_linear)"/>
<defs>
<linearGradient id="paint0_linear" x1="21.4939" y1="0" x2="21.4939" y2="42.9878" gradientUnits="userSpaceOnUse">
<stop stop-color="#F57C1B"/>
<stop offset="1" stop-color="#002A66"/>
</linearGradient>
</defs>
</svg>
