<svg width="52" height="57" viewBox="0 0 52 57" fill="none" xmlns="http://www.w3.org/2000/svg">
      <path d="M50.1663 9.74235C49.4608 6.76665 47.3029 4.36164 44.3979 3.3018C39.9159 1.63052 33.525 0 25.806 0C17.9211 0 11.4056 1.75281 6.84067 3.50562C4.0602 4.56545 1.98521 6.88894 1.27972 9.70159C-0.214272 15.5307 -1.45926 25.966 3.9772 36.8905C10.5756 50.0977 22.6106 55.03 25.474 56.1306C28.296 55.03 40.6214 49.9754 47.3029 36.3606C52.5733 25.7214 51.5358 15.5715 50.1663 9.74235ZM44.1489 35.1785C38.4219 46.7959 27.881 51.1575 25.474 52.0543C23.0256 51.1168 12.7751 46.9182 7.13117 35.6268C2.44171 26.2921 3.5622 17.365 4.80719 12.3919C5.42969 9.94617 7.21417 7.98954 9.57965 7.09276C13.4806 5.62529 19.0001 4.11706 25.7645 4.11706C32.363 4.11706 37.7994 5.503 41.6589 6.92971C44.1489 7.82649 45.9749 9.90541 46.5974 12.4327C47.7594 17.365 48.6309 26.0475 44.1489 35.1785Z" fill="url(#paint0_linear)"/>
      <path d="M34.7288 26.4145C34.7288 37.0944 26.4289 43.0458 25.6404 43.5757V9.2533C34.5628 15.4085 34.7288 25.477 34.7288 26.4145Z" fill="#002A66"/>
      <path d="M25.6402 9.2533V43.5757C24.8517 43.0458 16.5518 37.0944 16.5518 26.4145C16.5518 15.7346 24.8517 9.78321 25.6402 9.2533Z" fill="url(#paint1_linear)"/>
      <path d="M26.8853 46.9181H24.3538V42.5972L25.6403 39.2546L26.8853 42.5972V46.9181Z" fill="#002A66"/>
      <defs>
        <linearGradient id="paint0_linear" x1="25.6353" y1="-0.210908" x2="25.6353" y2="55.0101" gradientUnits="userSpaceOnUse">
          <stop stop-color="#F57C1B"/>
          <stop offset="1" stop-color="#002A66"/>
        </linearGradient>
        <linearGradient id="paint1_linear" x1="21.0911" y1="12.6085" x2="21.0911" y2="50.7513" gradientUnits="userSpaceOnUse">
          <stop stop-color="#F57C1B"/>
          <stop offset="1" stop-color="#002A66"/>
        </linearGradient>
      </defs>
    </svg>